HIERARCHY
ROOT Hips
{
	OFFSET 71.494926 92.105927 17.642220
	CHANNELS 6 Xposition Yposition Zposition Zrotation Yrotation Xrotation 
	JOINT LeftUpLeg
	{
		OFFSET 0.103459 1.857829 10.548508
		CHANNELS 3 Zrotation Yrotation Xrotation
		JOINT LeftLeg
		{
			OFFSET 43.500000 -0.000031 -0.000004
			CHANNELS 3 Zrotation Yrotation Xrotation
			JOINT LeftFoot
			{
				OFFSET 42.372200 0.000019 0.000005
				CHANNELS 3 Zrotation Yrotation Xrotation
				JOINT LeftToe
				{
					OFFSET 17.299999 -0.000000 -0.000005
					CHANNELS 3 Zrotation Yrotation Xrotation
					End Site
					{
						OFFSET 0.000000 0.000000 0.000000
					}
				}
			}
		}
	}
	JOINT RightUpLeg
	{
		OFFSET 0.103458 1.857828 -10.548506
		CHANNELS 3 Zrotation Yrotation Xrotation
		JOINT RightLeg
		{
			OFFSET 43.500042 -0.000023 0.000011
			CHANNELS 3 Zrotation Yrotation Xrotation
			JOINT RightFoot
			{
				OFFSET 42.372261 -0.000008 0.000008
				CHANNELS 3 Zrotation Yrotation Xrotation
				JOINT RightToe
				{
					OFFSET 17.299994 -0.000005 0.000010
					CHANNELS 3 Zrotation Yrotation Xrotation
					End Site
					{
						OFFSET 0.000000 0.000000 0.000000
					}
				}
			}
		}
	}
	JOINT Spine
	{
		OFFSET 6.901963 -2.603731 0.000002
		CHANNELS 3 Zrotation Yrotation Xrotation
		JOINT Spine1
		{
			OFFSET 12.588100 0.000001 -0.000005
			CHANNELS 3 Zrotation Yrotation Xrotation
			JOINT Spine2
			{
				OFFSET 12.343208 0.000002 0.000006
				CHANNELS 3 Zrotation Yrotation Xrotation
				JOINT Neck
				{
					OFFSET 25.832893 -0.000004 -0.000005
					CHANNELS 3 Zrotation Yrotation Xrotation
					JOINT Head
					{
						OFFSET 11.766604 0.000010 0.000000
						CHANNELS 3 Zrotation Yrotation Xrotation
						End Site
						{
							OFFSET 0.000000 0.000000 0.000000
						}
					}
				}
				JOINT LeftShoulder
				{
					OFFSET 19.745903 -1.480368 6.000098
					CHANNELS 3 Zrotation Yrotation Xrotation
					JOINT LeftArm
					{
						OFFSET 11.284134 -0.000007 -0.000016
						CHANNELS 3 Zrotation Yrotation Xrotation
						JOINT LeftForeArm
						{
							OFFSET 33.000050 0.000005 0.000015
							CHANNELS 3 Zrotation Yrotation Xrotation
							JOINT LeftHand
							{
								OFFSET 25.200003 0.000014 0.000010
								CHANNELS 3 Zrotation Yrotation Xrotation
								End Site
								{
									OFFSET 0.000000 0.000000 0.000000
								}
							}
						}
					}
				}
				JOINT RightShoulder
				{
					OFFSET 19.746094 -1.480373 -6.000076
					CHANNELS 3 Zrotation Yrotation Xrotation
					JOINT RightArm
					{
						OFFSET 11.284140 -0.000016 -0.000005
						CHANNELS 3 Zrotation Yrotation Xrotation
						JOINT RightForeArm
						{
							OFFSET 33.000092 0.000015 0.000005
							CHANNELS 3 Zrotation Yrotation Xrotation
							JOINT RightHand
							{
								OFFSET 25.199781 0.000140 0.000422
								CHANNELS 3 Zrotation Yrotation Xrotation
								End Site
								{
									OFFSET 0.000000 0.000000 0.000000
								}
							}
						}
					}
				}
			}
		}
	}
}
MOTION
Frames: 5
Frame Time: 0.033333
71.494926 92.105927 17.642220 88.086102 3.579209 80.843266 -174.287508 -3.119393 168.053567 -16.064789 -1.846925 -1.993336 86.847898 1.290084 -0.871601 21.454553 0.003092 0.000000 -174.665354 -2.647598 178.766131 -16.742631 3.041737 12.267811 85.209014 -8.155997 2.532293 21.454560 -0.003114 -0.000018 6.343587 0.418888 0.110972 2.640928 0.833599 0.219754 2.322790 0.835099 0.214669 12.989987 4.152009 0.453201 -15.409639 -2.134286 1.909441 -77.640379 -83.146393 -104.762992 -6.872848 4.375671 -10.605236 -18.833671 -16.257467 1.139214 13.251521 3.941738 -0.315330 32.273470 86.845821 -146.069852 -1.409934 -9.075201 18.108624 -22.613940 19.578818 -1.423883 12.301311 -1.850294 -19.013425 
71.481209 92.107048 17.657730 88.079517 3.572993 80.829934 -174.287494 -3.131696 168.053567 -16.074862 -1.846924 -2.001344 86.847884 1.290077 -0.890942 21.454553 0.003100 -0.000001 -174.665354 -2.660504 178.766118 -16.749581 3.041747 12.267817 85.192355 -8.155990 2.510510 21.454557 -0.003109 -0.000017 6.343588 0.418894 0.110966 2.645270 0.833595 0.219765 2.327121 0.835095 0.214667 12.950225 4.143789 0.468654 -15.375094 -2.125697 1.921893 -77.641042 -83.146393 -104.761728 -6.908426 4.380928 -10.593161 -18.935473 -16.307222 1.143470 13.251522 3.903303 -0.362326 32.395229 86.845698 -145.948712 -1.429433 -9.131951 18.080979 -22.665776 19.586279 -1.423882 12.339490 -1.836360 -19.108178 
71.462257 92.108803 17.679319 88.069217 3.564115 80.810557 -174.287508 -3.149794 168.053581 -16.088591 -1.846926 -2.011231 86.847911 1.290089 -0.918636 21.454551 0.003086 -0.000000 -174.665354 -2.678894 178.766131 -16.759647 3.041742 12.262583 85.169522 -8.155996 2.484769 21.454560 -0.003113 -0.000019 6.343598 0.418895 0.110962 2.651641 0.833591 0.219758 2.333509 0.835105 0.214669 12.905080 4.132979 0.490995 -15.340373 -2.114902 1.940549 -77.658930 -83.146454 -104.743389 -6.960227 4.390617 -10.583822 -19.087141 -16.379070 1.149701 13.251433 3.855755 -0.417427 32.514419 86.845698 -145.830167 -1.464024 -9.208236 18.044366 -22.722706 19.602359 -1.423895 12.352481 -1.772104 -19.130916 
71.443291 92.110718 17.701120 88.057770 3.555027 80.790490 -174.287508 -3.168901 168.053567 -16.102470 -1.846921 -2.020989 86.847891 1.290080 -0.947193 21.454555 0.003095 0.000001 -174.665354 -2.697305 178.766131 -16.771092 3.041740 12.256397 85.149550 -8.155995 2.469399 21.454557 -0.003113 -0.000017 6.343591 0.418893 0.110969 2.658128 0.833597 0.219755 2.339995 0.835107 0.214676 12.868534 4.123897 0.512753 -15.315449 -2.106244 1.959513 -77.697035 -83.146427 -104.705106 -7.006494 4.391952 -10.597546 -19.240359 -16.437086 1.155092 13.232602 3.842742 -0.425656 32.646064 86.845821 -145.699505 -1.496336 -9.244971 18.001382 -22.726339 19.600088 -1.423883 12.323397 -1.773137 -19.103916 
71.424423 92.112518 17.723040 88.046015 3.545982 80.770231 -174.287508 -3.188204 168.053567 -16.118002 -1.846925 -2.032501 86.847898 1.290090 -0.976278 21.454550 0.003093 -0.000001 -174.665354 -2.715609 178.766131 -16.783701 3.041744 12.249750 85.130556 -8.155993 2.456338 21.454562 -0.003110 -0.000018 6.343591 0.418890 0.110976 2.664240 0.833589 0.219752 2.346107 0.835107 0.214669 12.848207 4.119042 0.531530 -15.304924 -2.101323 1.977138 -77.743085 -83.146481 -104.659357 -7.052052 4.369643 -10.603738 -19.357250 -16.466819 1.158294 13.209421 3.862897 -0.447298 32.867779 86.845138 -145.478904 -1.515931 -9.251343 17.962062 -22.706658 19.585366 -1.423888 12.266780 -1.821035 -19.038193 
